<svg class="logo" xmlns="http://www.w3.org/2000/svg" viewBox="0 0 569.3 495.9"><path d="M495.3 428c2 0 3.5-1.1 4.5-3.3 1-2.2 1.5-4.3 1.5-6.3s-.5-4.1-1.5-6.3-2.5-3.3-4.5-3.3h-149l-45-67.9h194c21.3 0 38.9 6.4 52.9 19.2 14 12.8 21 32.3 21 58.2 0 26-7 45.4-21 58.3-14 12.8-31.7 19.2-52.9 19.2H299.1V428h196.2zM278.9 341.8l44.9 68.5H74.7c-21.5 0-39.3-6.5-53.5-19.4C7.1 377.9 0 358.3 0 332c0-26.3 7.1-45.9 21.2-58.8 14.2-12.9 32-19.4 53.5-19.4h200v68.6h-200c-2 0-3.6 1.1-4.6 3.3-1 2.2-1.5 4.3-1.5 6.4 0 2 .5 4.2 1.5 6.4s2.5 3.3 4.6 3.3h204.2z"/><g><path d="M495.3 87.1c2 0 3.5-1.1 4.5-3.3 1-2.2 1.5-4.3 1.5-6.3s-.5-4.1-1.5-6.3-2.5-3.3-4.5-3.3h-198V0h198c21.3 0 38.9 6.4 52.9 19.2 14 12.8 21 32.3 21 58.3s-7 45.4-21 58.2c-14 12.8-31.7 19.2-52.9 19.2h-198V87.1h198zM297.3 323.6v-67.9h198c2 0 3.5-1.1 4.5-3.3 1-2.2 1.5-4.3 1.5-6.3s-.5-4.1-1.5-6.3-2.5-3.3-4.5-3.3h-198v-67.9h198c21.3 0 38.9 6.4 52.9 19.2 14 12.8 21 32.3 21 58.2 0 26-7 45.4-21 58.3-14 12.8-31.7 19.2-52.9 19.2h-198z"/></g></svg>
